<svg xmlns="http://www.w3.org/2000/svg" xmlns:xlink="http://www.w3.org/1999/xlink" xmlns:lucid="lucid" width="2321.28" height="1360"><g transform="translate(0 0)" lucid:page-tab-id="mXwzAnnOLpm1"><path d="M0 0h2321.28v1360H0z" fill="#fff"/><path d="M1524.16 980h240v60h-240z" fill="none"/><use xlink:href="#a" transform="matrix(1,0,0,1,1524.1635839510802,980) translate(35.00925925925927 35.955555555555556)"/><use xlink:href="#b" transform="matrix(1,0,0,1,1524.1635839510802,980) translate(125.83148148148148 35.955555555555556)"/><path d="M40 860.72h240v60H40z" fill="none"/><use xlink:href="#c" transform="matrix(1,0,0,1,40,860.7213761700264) translate(92.62685185185185 34.93333333333334)"/><path d="M2176.64 643.5c65.28 22.62 107.52 74.82 107.52 134.56 0 68.44-56.32 127.02-134.4 142.1l-25.6 4.64h-925.44c-107.52 0-194.56-73.66-194.56-162.4 0-88.74 87.04-162.4 194.56-162.4 8.96 0 14.08 0 23.04 1.74 32-42.92 87.04-67.28 148.48-67.28 16.64 0 32 1.74 48.64 5.8v-5.8c0-105.56 101.12-189.66 227.84-189.66 87.04 0 167.68 44.08 204.8 110.2 32-15.66 69.12-24.36 107.52-24.36 121.6 0 220.16 82.36 220.16 183.28 1.28 9.28 0 18.56-2.56 29.58z" stroke="#000" stroke-opacity="0" fill="#0078d7"/><path d="M453.3 76c0-4.42 3.58-8 8-8h836.75c4.42 0 8 3.58 8 8v25.16c0 4.4-3.58 8-8 8H461.3c-4.42 0-8-3.6-8-8z" stroke="#000" stroke-opacity="0" stroke-width="2" fill="#fff" fill-opacity="0"/><use xlink:href="#d" transform="matrix(1,0,0,1,457.2972147643302,72) translate(385.8211111111111 25.782777777777778)"/><path d="M695.86 107.8h373.3M695.9 107.8h-1.04M1069.15 107.8h1.02" stroke="#a9afb8" stroke-width="2" fill="none"/><path d="M453.3 117.16c0-4.42 3.58-8 8-8H1299c4.42 0 8 3.58 8 8V120c0 4.42-3.58 8-8 8H461.3c-4.42 0-8-3.58-8-8z" stroke="#000" stroke-opacity="0" stroke-width="2" fill="#fff" fill-opacity="0"/><use xlink:href="#e" transform="matrix(1,0,0,1,457.29721476433065,113.15522395689881) translate(292.3186934156379 14.917037037037037)"/><use xlink:href="#f" transform="matrix(1,0,0,1,457.29721476433065,113.15522395689881) translate(344.92095679012345 14.917037037037037)"/><use xlink:href="#g" transform="matrix(1,0,0,1,457.29721476433065,113.15522395689881) translate(409.4203395061728 14.917037037037037)"/><use xlink:href="#h" transform="matrix(1,0,0,1,457.29721476433065,113.15522395689881) translate(421.86982510288067 14.917037037037037)"/><use xlink:href="#i" transform="matrix(1,0,0,1,457.29721476433065,113.15522395689881) translate(500.8157098765432 14.917037037037037)"/><use xlink:href="#j" transform="matrix(1,0,0,1,457.29721476433065,113.15522395689881) translate(526.309537037037 14.917037037037037)"/><path d="M185.57 811.95h-43.93c5.28 19.36-1.8 22.13-32.84 22.13v10.13h105.6V834.1c-31.05 0-34.1-2.77-28.83-22.13" stroke="#000" stroke-opacity="0" fill="#7a7a7a"/><path d="M230.4 695.8H88.64c-4.8 0-8.64 4.28-8.64 9.18V806.1c0 4.77 3.84 9.07 8.64 9.07H230.4c4.8 0 9.6-4.3 9.6-9.07V704.98c0-4.9-4.8-9.2-9.6-9.2" stroke="#000" stroke-opacity="0" fill="#a0a1a2"/><path d="M230.43 695.8H88.73c-4.82 0-8.73 4.3-8.73 9.18V806.1c0 4.78 3.9 9.07 8.73 9.07h3.3l138.4-119.38z" stroke="#000" stroke-opacity="0" fill="#fff" fill-opacity=".2"/><path d="M227.2 708.7v93.57H92.8V708.7h134.4z" stroke="#000" stroke-opacity="0" fill="#59b4d9"/><path d="M108.8 834.53h105.6v9.68H108.8v-9.67z" stroke="#000" stroke-opacity="0" fill="#a0a1a2"/><path d="M161.65 702.55c0 1.26-1 2.3-2.27 2.3-1.25 0-2.27-1.04-2.27-2.3 0-1.27 1.03-2.3 2.28-2.3 1.26 0 2.27 1.03 2.27 2.3" stroke="#000" stroke-opacity="0" fill="#b8d432"/><path d="M165.45 733.96l-1.63 1.02-1.42-2.6c-.54-1-.62-1.85-.25-2.74.3-.76.97-1.2 1.78-1.2h.2c.9.07 1.8 1.03 2.1 1.87.28.9.28 3-.78 3.66z" stroke="#000" stroke-opacity="0" fill="#fff" fill-opacity=".4"/><path d="M149.52 784.05c.03-.1-8.1-13.25-7.6-15.48 3.82-18.33 8.36-21.02 10.03-24.85 1.66-3.88.7-7.46 2.67-7.5 1.98-.06 7.84.4 9.23.87 1.42.46 3.44 1.9 4.58 5.07 1.5 2.9 2.98 5.8 3.47 9.06.04.3.17.62.38.83 3.75 4.2 4.5 9.3 4.27 14.7-.07 1.34-.28 3.36-.45 4.1-.17.66-5.28 17.33-13.33 17.12-8-.2-12.28-3.2-13.25-3.93z" stroke="#000" stroke-opacity="0" fill="#fbfbf9" fill-opacity=".85"/><path d="M192.74 780.15c-2.95-.14-4.5-1.92-4.53-3.63 0-2 .84-4.5-2.02-4.75-2.88-.26-8.73-.56-10.3-.85-3.43-.64-3.6.76-3.66 1.76-.02.47.4 5.17-.04 7 .02.78-.03 1.57-.14 2.35-.34 2.13-.57 4.3-.87 6.43 0 1.02-.02 2.07-.04 3.1 2.5 3.7 7.33 3.86 10.32.65 2.83-2.88 6.2-4.85 9.8-6.6 1-.5 1.97-1.25 2.5-2.7.54-1.42.04-2.7-1-2.75z" stroke="#000" stroke-opacity="0" fill="#ff8c00" fill-opacity=".85"/><path d="M153.64 778.4c-.4 2-2.56 3.72-3.67 3.58-.7-.4-2.56-2.86-2.97-3.46-1.2-1.86-6.53-9.57-8.1-8.97-.5.06-.8.4-1.05.8-.1 0-.2.06-.3.13-.8-1.73-.7-3.46.15-5.12 1.96-3.6 2.87-7.32 3.87-11.3.35-1.4 1.16-2.54 2-3.6 1.57-2 1.52-4.06 3.13-6.06 1.06-1.26 1.96-2.6 1.86-4.25-.3-4.66-.85-9.18-.7-13.84.2-4.5 4.17-8.3 8.6-9.97 4.58-1.72 8.9-.86 12.58 2.47 2.9 2.6 4.17 6.05 4.42 9.9 0 .74.05 1.4.05 2.13-.34 7.25 2.68 13.17 7.26 18.43 4.42 5.05 6.13 11.1 6.54 17.62.1 1.73-.46 3.33-1.16 4.86-.96 2.26-2.32 3.6-3.57 4.2-1.26.6-6.24.92-5.28-2.34.44-1.6.54-2.33-1.42-2.72.1-1.33.35-2.73.4-4.06.3-5.4-.65-9.65-4.73-13.5-1.2-1.2-.05-1.33-.1-2.4-.1-2.92-1.76-5.78-3.27-8.7-.15-.54-.4-1-.75-1.4.1-.47-.15-.8-.36-1.14.26-.93.6-1.8.46-2.8 0-.8-8.55-1.2-9.6-.72-.46-.2-5-.4-5-.34-.6.47-1.05 1.13-1.25 1.87-.15.65.96 2.1 1.06 2.3l-.15 3-.3 1c-.72 1.14-1.47 2.27-2.18 3.4-.6 1.06-1.35 2.06-1.46 3.32-.45 1.27 1.3 3-.3 4.53-1.6 1.46-3.27 8.7-3.27 10.44-.06 1.85 3.3 6.04 4.57 7.24 2.3 2.26 4.43 3.06 3.97 5.45zM152.02 785.28c3.43 1 13.14 1.28 17.85-3.48l2.36-2.17c.02.8-.04 1.57-.16 2.37-.32 2.13-.56 4.27-.85 6.4l-.06 3.14c-4.32-1.2-10.83-1.64-12.8-1.53-1.94.12-4.58.6-6.12 1l-.22-5.72z" stroke="#000" stroke-opacity="0" fill="#1e1e1e" fill-opacity=".85"/><path d="M188.48 777.05l-.2-.3.2.3zM187.22 772.53l-.28-.27.28.27z" stroke="#000" stroke-opacity="0" fill="#dda516" fill-opacity=".85"/><path d="M150.04 782.38l.14.22-.14-.22z" stroke="#000" stroke-opacity="0" fill="#8c5f07" fill-opacity=".85"/><path d="M186.94 772.26z" stroke="#000" stroke-opacity="0" fill="#e3a906" fill-opacity=".85"/><path d="M148.63 780.28c-2.5-2.63-4.45-5.8-6.2-9.38-.93-1.9-3.8-3.37-4.84-.43-1.1 2.96-2.78 4.16-5.54 3.78-2.02-.25-3.9 1.3-3.06 3.88.92 2.76 1.94 4.93-.06 6.88-2 1.95-1.17 3.96 1.64 4.35 2.8.38 10.2 2.07 14.47 4.34 4.27 2.26 7.67-2.03 8.13-3.3 1.12-3.15-2.02-7.5-4.55-10.12z" stroke="#000" stroke-opacity="0" fill="#ff8c00" fill-opacity=".85"/><path d="M158.15 749.44c-2.4 0-4-2.3-5.13-4.3-.02 0-3.73-5.24-2.38-8.14.2-.4.5-1.1 4.32-3.47l.7-.6.7-.36.43-.17c.52-.16 1.1-.33 1.68-.33h.27l.5.12 1.13.37 9.28 3.46.25 1.4c.23 1.14-.05 2.13-.28 2.93l-.36 1.35-.78.3c-.7.27-1.8 1.45-2.7 2.4-.86.94-1.68 1.84-2.53 2.38l-.96.7c-1.33 1-2.58 1.96-4.15 1.96z" stroke="#000" stroke-opacity="0" fill="#1e1e1e" fill-opacity=".85"/><path d="M164.33 737.96c-1.63 1.43-3.5 2.66-5.84 2.7-.1.1-.1.1 0 0 0-.52-.03-1.03-.47-1.4-.38-.34-.43-.82-.32-1.24.44-1.7.18-3.4.24-5.1-.44-.15-1.45.22-1.58.24-.2.12-.4.22-.6.3l-.7.6c-.3.2-3.45 2.13-3.77 2.82-.84 1.8 1.9 6.16 2.3 6.67 3.2 5.65 4.97 3.2 7.98 1.08 1.6-1.06 3.7-4.27 5.53-4.93.24-.92.62-1.8.44-2.77-1.15.05-2.18.14-3.2 1.03z" stroke="#000" stroke-opacity="0" fill="#ff8c00" fill-opacity=".85"/><path d="M156.6 732.94h.04v-.02l-.03.02z" stroke="#000" stroke-opacity="0" fill="#e3a906" fill-opacity=".85"/><path d="M166.23 735.63c.7.36 1.32.76 1.3 1.68-1.26.1-2.38.17-3.5 1.15-1.8 1.56-4.22 3.88-6.78 3.95.1-.84-1.1-2.06-.77-3.5.42-1.86.5-4.1.55-5.98 1.17-.46 2.26-.04 3.35.3l1.37.85c.8.3 1.6.6 2.4.92.62.42 1.37.47 2.08.63z" stroke="#000" stroke-opacity="0" fill="#fcd116" fill-opacity=".85"/><path d="M153.6 729.84h3.2v3.23h-3.2v-3.23zM163.2 729.84h3.2v3.23h-3.2v-3.23z" stroke="#000" stroke-opacity="0" fill="#fff" fill-opacity=".9"/><path d="M110.7 834.53h101.8c1.26 0 1.9.65 1.9 1.94v5.8c0 1.3-.64 1.94-1.9 1.94H110.7c-1.27 0-1.9-.63-1.9-1.92v-5.8c0-1.3.63-1.95 1.9-1.95z" stroke="#000" stroke-opacity="0" stroke-width="0" fill-opacity="0"/><path d="M400 580h240v60H400z" stroke="#000" stroke-opacity="0" stroke-width="2" fill="#fff" fill-opacity="0"/><use xlink:href="#k" transform="matrix(1,0,0,1,405,585) translate(70.85925925925928 30.455555555555552)"/><path d="M420 820.17h240v60H420z" stroke="#000" stroke-opacity="0" stroke-width="2" fill="#fff" fill-opacity="0"/><use xlink:href="#l" transform="matrix(1,0,0,1,425,825.1722000496072) translate(61.50740740740741 30.455555555555552)"/><path d="M1700 456.16v86.23c0 9 19.98 16.17 45 16.17v-102.4h-45z" stroke="#000" stroke-opacity="0" fill="#3e3e3e"/><path d="M1744.3 558.8h.72c24.73 0 44.98-7.38 44.98-16.1v-86.54h-45.7V558.8z" stroke="#000" stroke-opacity="0" fill="#a0a1a2"/><path d="M1790 456.16c0 9-19.98 16.16-45 16.16s-45-7.15-45-16.16c0-8.8 20.25-16.16 45-16.16s45 7.37 45 16.16" stroke="#000" stroke-opacity="0" fill="#fff"/><path d="M1780.7 455.2c0 5.95-15.9 10.7-35.7 10.7-19.8 0-35.7-4.75-35.7-10.7 0-5.94 15.9-10.7 35.7-10.7 19.8 0 35.7 4.76 35.7 10.7" stroke="#000" stroke-opacity="0" fill="#7fba00"/><path d="M1773.36 461.86c4.7-1.9 7.35-4.04 7.35-6.66 0-5.93-15.9-10.7-35.7-10.7-19.8 0-35.7 4.77-35.7 10.7 0 2.38 2.84 4.75 7.34 6.66 6.43-2.62 16.72-4.28 28.36-4.28 11.43 0 21.64 1.66 28.36 4.28" stroke="#000" stroke-opacity="0" fill="#b8d432"/><path d="M1744.3 558.8v-42.73c-6.7 0-12.4-3.6-15.74-8.82-3.32 5.2-8.8 8.82-15.45 8.82-5.26 0-9.78-2.17-13.1-5.73v32.33c0 8.77 19.75 15.88 44.3 16.14z" stroke="#000" stroke-opacity="0" fill="#3999c6"/><path d="M1744.3 558.8h.7-.7M1776.17 516.07c-6.66 0-12.6-3.6-15.93-8.82-3.1 5.2-8.82 8.56-15.48 8.82v42.74c24.75 0 45-7.36 45-16.13v-32.6c-3.33 3.57-8.1 6-13.6 6zM1744.52 516.04l-.23 42.77h.46v-42.76h-.24z" stroke="#000" stroke-opacity="0" fill="#59b4d9"/><use xlink:href="#m" transform="matrix(1,0,0,1,1670,569) translate(-21.912037037037024 21.511111111111106)"/><path d="M1804.04 775.2c.48-2.15.72-4.2.72-6.33 0-15.92-12.96-28.87-28.92-28.87-11.4 0-21 6.02-25.92 16.22-4.08-4.08-9-6.12-14.76-6.12-11.4 0-20.64 9.38-20.64 20.8 0 1.54.12 3.07.48 4.7-9.36 3.87-15 11.83-15 21.52 0 13.06 10.68 23.26 24.24 23.26h1.56c.24 12.03 10.08 21.62 21.96 21.62 8.28 0 15.24-4.08 19.2-11.22 3.12 2.65 6.48 3.88 10.56 3.88 8.16 0 15-6.23 15.96-14.28h2.28c13.56 0 24.24-10.2 24.24-23.26 0-10.1-6.12-18.36-15.96-21.93" stroke="#000" stroke-opacity="0" stroke-width="3" fill="#59b4d9"/><path d="M1794.64 786.1l1.78-4.14-.48-.47-3.9-3.34v-3.4l4.38-3.87-1.7-4.3-.7.08-5.1.4-2.33-2.44.26-5.84-4.16-1.76-.4.54-3.42 3.8h-3.35l-3.9-4.34-4.22 1.7.08.67.34 5.1-2.4 2.38-5.86-.27-1.7 4.16.47.47 3.9 3.33-.08 3.4-4.3 3.94 1.7 4.2.63-.06 5.1-.34 2.4 2.38-.34 5.84 4.23 1.77.4-.56 3.36-3.8h3.4l3.9 4.35 4.16-1.7v-.7l-.42-5.1 2.46-2.36 5.8.27zm-21.16-1.15c-4.7-2.03-6.9-7.47-4.9-12.22 1.97-4.76 7.43-6.93 12.14-4.96 4.7 2.04 6.96 7.47 4.98 12.22-2.05 4.68-7.44 6.92-12.22 4.95m-5.46 22.22v-4.56l-.6-.2-4.86-1.55-1.3-3.13 2.53-5.3-3.22-3.26-.6.34-4.58 2.3-3.14-1.28-1.98-5.5h-4.5l-.2.6-1.65 4.9-3.07 1.3-5.32-2.52-3.2 3.26.33.54 2.32 4.62-1.3 3.13-5.53 1.97v4.55l.6.2 4.92 1.57 1.3 3.12-2.53 5.3 3.2 3.2.62-.28 4.56-2.3 3.07 1.28 1.98 5.5h4.58l.2-.6 1.58-4.9 3.14-1.3 5.25 2.52 3.2-3.26-.26-.6-2.33-4.56 1.3-3.12 5.45-1.97zm-19.92 7.13c-5.12 0-9.3-4.2-9.3-9.3 0-5.17 4.18-9.3 9.3-9.3 5.18 0 9.35 4.13 9.28 9.3 0 5.15-4.17 9.3-9.28 9.3" stroke="#000" stroke-opacity="0" stroke-width="3" fill="#fff"/><path d="M1782.66 778.7c-1.23 3.1-4.72 4.6-7.84 3.38-3.07-1.22-4.6-4.75-3.36-7.84l.12-.24c1.36-3.05 4.88-4.43 7.96-3.05 2.96 1.3 4.35 4.75 3.12 7.76m-28.5 26.28c0 3.33-2.72 6.05-6.05 6.05-3.3 0-6.02-2.72-6.02-6.05 0-3.33 2.7-6.05 6.03-6.05 3.34 0 6.05 2.72 6.05 6.05" stroke="#000" stroke-opacity="0" stroke-width="3" fill="#b8d432"/><use xlink:href="#n" transform="matrix(1,0,0,1,1670,851) translate(40.442283950617295 21.511111111111106)"/><use xlink:href="#o" transform="matrix(1,0,0,1,1670,851) translate(37.86543209876544 53.777777777777764)"/><path d="M1076.78 758.72l1.02-.8 5.96 4.68-1.02.8zm68.87 24.62h9.48v1.33h-9.48zm.32-11.96l7.36-2.06.47 1-7.36 2.04zm-19.75-16.76l2.35-6.23 1.33.3-2.27 6.23zm-35.4-4.22l1.1-.5 3.35 4.72-1.17.5zm17.7-3.72h1.64v7.45h-1.64z" stroke="#000" stroke-opacity="0" stroke-width="8.33" fill="#a0a1a2"/><path d="M1076.78 758.75l1.02-.8 5.96 4.67-1.02.75zm68.87 24.6h9.48v1.33h-9.48zm.32-11.97l7.36-2.1.47 1.03-7.36 2.06zm-19.75-16.77l2.35-6.22 1.33.3-2.27 6.24zm-35.4-4.17l1.1-.5 3.35 4.73-1.17.48zm30.3 21.62c-2.5 2.36-3.67 2.58-9.4 7.78 3.38 1.16 5.8 3 7.45 5.57 4.47-4.1 6.58-5.2 9.48-7.92l17.08-21.53zm-13.7 15.2l4.4 5.62c2.26-.98 3.6-2.7 3.6-4.76V788c-.32-3.2-3.85-5.6-8-5.4v4.46z" stroke="#000" stroke-opacity="0" stroke-width="8.33" fill="#a0a1a2"/><path d="M1146.98 751.5c-10.04-7.7-22.02-11.5-36.16-11.5-27.97 0-50.72 17.77-50.82 39.73v5.67c.72 4.12 4.5 7.23 9.84 8.03l2.66-3.75c-3.8.38-7.27-1.66-7.8-4.65-.1-.33-.1-.65-.1-1.02v-7.1s1.14-4.13 1.65-5.58c4.6-16.76 23.05-28.27 44.98-28.1 25.7-.17 46.6 16 46.82 36.13v4.7c0 5.74-4.82 5.8-9.53 5.8h-29.2c-.6 3.58-2.46 3.58-2.46 3.58h34.53c.8.1 1.53.1 2.35.06 5.22-.34 9.1-3.98 8.7-8.1v-6.05c-.1-10.97-5.32-20.34-15.47-27.84z" stroke="#000" stroke-opacity="0" stroke-width="8.33" fill="#a0a1a2"/><path d="M1105.5 788.98v-12h.6c2.4-.1 3.4-1.36 3.4-4 .07-.4.07-.77-.05-1.17-.48-1.67-2.58-2.73-4.74-2.38h-28.77c-2.22.1-3.9 1.58-3.78 3.3v1.17c.06.14.06.25.06.4.43 1.72 2.53 2.94 4.75 2.64v12.04l-16.5 24.08 5.7 7.1h47.56l6.73-7.1zm-19.38 14.28l-7.2 9.4h-9.77l17.1-23.68v-12h9.7v12l10.14 14.28h-19.98z" stroke="#000" stroke-opacity="0" stroke-width="8.33" fill="#59b4d9"/><path d="M1086.1 803.26l-7.15 9.38h-9.8l17.26-23.65v-12.03h9.57V789l10.12 14.26h-20z" stroke="#000" stroke-opacity="0" stroke-width="8.33" fill="#d5ecf6"/><path d="M1060.46 813.04l13.5-19.77-4.15.17 7.15-16.52 28.54.05 11.4 16.47-8.6-.04 12.13 19.64-6.72 7.13h-47.55z" stroke="#000" stroke-opacity="0" stroke-width=".01" fill-opacity="0"/><path d="M1069.82 793.47l-7.4-5.6-1.2-8.7 1.8-8.4 3.8-8.4 9-9.5 11.1-6.84 10.8-3.18 12.8-1.95 15.48 2.18 11.8 4.28 12 8.4 7.7 9.8 3.2 11.27.5 9.57-4.3 4.9-10.7 1-18.5.32-10.8.85-9.4.3 11.3 19.38-5.8 5.44-46.07.07-5.1-5.6 14.9-19.6z" stroke="#000" stroke-opacity="0" stroke-width=".01" fill-opacity="0"/><path d="M1069.57 811.1h40.72c2.27 0 3.4.9 3.4 2.68v3.72c0 1.78-1.13 2.67-3.4 2.67h-40.73c-2.28 0-3.43-.9-3.43-2.67v-3.72c0-1.8 1.15-2.68 3.43-2.68z" stroke="#000" stroke-opacity="0" stroke-width=".01" fill-opacity="0"/><use xlink:href="#p" transform="matrix(1,0,0,1,1030,829.1722000496072) translate(21.149382716049395 21.511111111111106)"/><use xlink:href="#q" transform="matrix(1,0,0,1,1030,829.1722000496072) translate(42.772530864197535 53.777777777777764)"/><path d="M1745 563.8v153.32" stroke="#666" stroke-width="10" fill="none"/><path d="M1750 563.94h-10v-5.37l4.3.24h.72l4.98-.26z" fill="#666"/><path d="M1745 736.4l-4.64-14.28h9.28z" stroke="#666" stroke-width="10" fill="#666"/><path d="M1695.84 791h-500.4" stroke="#666" stroke-width="10" fill="none"/><path d="M1702.52 786.6l-1.8 4.74-.62 4.66h-4.4v-10h7.23z" fill="#666"/><path d="M1176.18 791l14.26-4.64v9.28z" stroke="#666" stroke-width="10" fill="#666"/><path d="M160 692.8v-25c0-6.64 5.37-12 12-12h927.23c6.62 0 12 5.36 12 12v45.25" stroke="#666" stroke-width="6" fill="none"/><path d="M163 695.8h-6v-3.1h6z" fill="#666"/><path d="M1111.23 730.3l-4.64-14.25h9.26z" stroke="#666" stroke-width="6" fill="#fff"/><path d="M1006.2 802.27h-735" stroke="#666" stroke-width="8" fill="none"/><path d="M1009.2 798.93l1.67 5.58.6 1.77h-5.38v-8h2.92z" fill="#666"/><path d="M252.94 802.27l14.27-4.63v9.27z" stroke="#666" stroke-width="8" fill="#666"/><defs><path d="M199 0l-22-63H83L61 0H9l90-248h61L250 0h-51zm-33-102l-36-108c-10 38-24 72-36 108h72" id="r"/><path d="M12 0v-35l95-120H19v-35h142v35L67-36h103V0H12" id="s"/><path d="M85 4C-2 5 27-109 22-190h50c7 57-23 150 33 157 60-5 35-97 40-157h50l1 190h-47c-2-12 1-28-3-38-12 25-28 42-61 42" id="t"/><path d="M135-150c-39-12-60 13-60 57V0H25l-1-190h47c2 13-1 29 3 40 6-28 27-53 61-41v41" id="u"/><path d="M185-48c-13 30-37 53-82 52C43 2 14-33 14-96s30-98 90-98c62 0 83 45 84 108H66c0 31 8 55 39 56 18 0 30-7 34-22zm-45-69c5-46-57-63-70-21-2 6-4 13-4 21h74" id="v"/><g id="a"><use transform="matrix(0.08271604938271604,0,0,0.08271604938271604,0,0)" xlink:href="#r"/><use transform="matrix(0.08271604938271604,0,0,0.08271604938271604,21.423456790123453,0)" xlink:href="#s"/><use transform="matrix(0.08271604938271604,0,0,0.08271604938271604,36.31234567901234,0)" xlink:href="#t"/><use transform="matrix(0.08271604938271604,0,0,0.08271604938271604,54.42716049382715,0)" xlink:href="#u"/><use transform="matrix(0.08271604938271604,0,0,0.08271604938271604,66.0074074074074,0)" xlink:href="#v"/></g><path d="M190-63c-7 42-38 67-86 67-59 0-84-38-90-98-12-110 154-137 174-36l-49 2c-2-19-15-32-35-32-30 0-35 28-38 64-6 74 65 87 74 30" id="w"/><path d="M25 0v-261h50V0H25" id="x"/><path d="M110-194c64 0 96 36 96 99 0 64-35 99-97 99-61 0-95-36-95-99 0-62 34-99 96-99zm-1 164c35 0 45-28 45-65 0-40-10-65-43-65-34 0-45 26-45 65 0 36 10 65 43 65" id="y"/><path d="M88-194c31-1 46 15 58 34l-1-101h50l1 261h-48c-2-10 0-23-3-31C134-8 116 4 84 4 32 4 16-41 15-95c0-56 19-97 73-99zm17 164c33 0 40-30 41-66 1-37-9-64-41-64s-38 30-39 65c0 43 13 65 39 65" id="z"/><g id="b"><use transform="matrix(0.08271604938271604,0,0,0.08271604938271604,0,0)" xlink:href="#w"/><use transform="matrix(0.08271604938271604,0,0,0.08271604938271604,16.54320987654321,0)" xlink:href="#x"/><use transform="matrix(0.08271604938271604,0,0,0.08271604938271604,24.814814814814813,0)" xlink:href="#y"/><use transform="matrix(0.08271604938271604,0,0,0.08271604938271604,42.92962962962963,0)" xlink:href="#t"/><use transform="matrix(0.08271604938271604,0,0,0.08271604938271604,61.044444444444444,0)" xlink:href="#z"/></g><path d="M238-95c0 69-44 99-111 99C63 4 22-25 22-93v-155h51v151c-1 38 19 59 55 60 90 1 49-130 58-211h52v153" id="A"/><path d="M137-138c1-29-70-34-71-4 15 46 118 7 119 86 1 83-164 76-172 9l43-7c4 19 20 25 44 25 33 8 57-30 24-41C81-84 22-81 20-136c-2-80 154-74 161-7" id="B"/><g id="c"><use transform="matrix(0.0685185185185185,0,0,0.0685185185185185,0,0)" xlink:href="#A"/><use transform="matrix(0.0685185185185185,0,0,0.0685185185185185,17.746296296296293,0)" xlink:href="#B"/><use transform="matrix(0.0685185185185185,0,0,0.0685185185185185,31.449999999999996,0)" xlink:href="#v"/><use transform="matrix(0.0685185185185185,0,0,0.0685185185185185,45.1537037037037,0)" xlink:href="#u"/></g><path fill="#a9afb8" d="M230 0l2-204L168 0h-37L68-204 70 0H24v-248h70l56 185 57-185h69V0h-46" id="C"/><path fill="#a9afb8" d="M25 0v-261h50V0H25" id="D"/><path fill="#a9afb8" d="M140-251c80 0 125 45 125 126S219 4 139 4C58 4 15-44 15-125s44-126 125-126zm-1 214c52 0 73-35 73-88 0-50-21-86-72-86-52 0-73 35-73 86s22 88 72 88" id="E"/><path fill="#a9afb8" d="M135-194c53 0 70 44 70 98 0 56-19 98-73 100-31 1-45-17-59-34 3 33 2 69 2 105H25l-1-265h48c2 10 0 23 3 31 11-24 29-35 60-35zM114-30c33 0 39-31 40-66 0-38-9-64-40-64-56 0-55 130 0 130" id="F"/><path fill="#a9afb8" d="M137-138c1-29-70-34-71-4 15 46 118 7 119 86 1 83-164 76-172 9l43-7c4 19 20 25 44 25 33 8 57-30 24-41C81-84 22-81 20-136c-2-80 154-74 161-7" id="G"/><g id="d"><use transform="matrix(0.0728395061728395,0,0,0.0728395061728395,0,0)" xlink:href="#C"/><use transform="matrix(0.0728395061728395,0,0,0.0728395061728395,21.77901234567901,0)" xlink:href="#D"/><use transform="matrix(0.0728395061728395,0,0,0.0728395061728395,29.06296296296296,0)" xlink:href="#E"/><use transform="matrix(0.0728395061728395,0,0,0.0728395061728395,49.45802469135803,0)" xlink:href="#F"/><use transform="matrix(0.0728395061728395,0,0,0.0728395061728395,65.40987654320988,0)" xlink:href="#G"/></g><path fill="#a9afb8" d="M197 0v-115H63V0H30v-248h33v105h134v-105h34V0h-34" id="H"/><path fill="#a9afb8" d="M141-36C126-15 110 5 73 4 37 3 15-17 15-53c-1-64 63-63 125-63 3-35-9-54-41-54-24 1-41 7-42 31l-33-3c5-37 33-52 76-52 45 0 72 20 72 64v82c-1 20 7 32 28 27v20c-31 9-61-2-59-35zM48-53c0 20 12 33 32 33 41-3 63-29 60-74-43 2-92-5-92 41" id="I"/><path fill="#a9afb8" d="M210-169c-67 3-38 105-44 169h-31v-121c0-29-5-50-35-48C34-165 62-65 56 0H25l-1-190h30c1 10-1 24 2 32 10-44 99-50 107 0 11-21 27-35 58-36 85-2 47 119 55 194h-31v-121c0-29-5-49-35-48" id="J"/><path fill="#a9afb8" d="M85-194c31 0 48 13 60 33l-1-100h32l1 261h-30c-2-10 0-23-3-31C134-8 116 4 85 4 32 4 16-35 15-94c0-66 23-100 70-100zm9 24c-40 0-46 34-46 75 0 40 6 74 45 74 42 0 51-32 51-76 0-42-9-74-50-73" id="K"/><path fill="#a9afb8" d="M179-190L93 31C79 59 56 82 12 73V49c39 6 53-20 64-50L1-190h34L92-34l54-156h33" id="L"/><g id="e"><use transform="matrix(0.04248971193415638,0,0,0.04248971193415638,0,0)" xlink:href="#H"/><use transform="matrix(0.04248971193415638,0,0,0.04248971193415638,11.004835390946502,0)" xlink:href="#I"/><use transform="matrix(0.04248971193415638,0,0,0.04248971193415638,19.502777777777776,0)" xlink:href="#J"/><use transform="matrix(0.04248971193415638,0,0,0.04248971193415638,32.20720164609053,0)" xlink:href="#K"/><use transform="matrix(0.04248971193415638,0,0,0.04248971193415638,40.70514403292181,0)" xlink:href="#L"/></g><path fill="#a9afb8" d="M127-220V0H93v-220H8v-28h204v28h-85" id="M"/><path fill="#a9afb8" d="M206 0h-36l-40-164L89 0H53L-1-190h32L70-26l43-164h34l41 164 42-164h31" id="N"/><path fill="#a9afb8" d="M101-234c-31-9-42 10-38 44h38v23H63V0H32v-167H5v-23h27c-7-52 17-82 69-68v24" id="O"/><path fill="#a9afb8" d="M100-194c63 0 86 42 84 106H49c0 40 14 67 53 68 26 1 43-12 49-29l28 8c-11 28-37 45-77 45C44 4 14-33 15-96c1-61 26-98 85-98zm52 81c6-60-76-77-97-28-3 7-6 17-6 28h103" id="P"/><path fill="#a9afb8" d="M143 0L79-87 56-68V0H24v-261h32v163l83-92h37l-77 82L181 0h-38" id="Q"/><g id="f"><use transform="matrix(0.04248971193415638,0,0,0.04248971193415638,0,0)" xlink:href="#M"/><use transform="matrix(0.04248971193415638,0,0,0.04248971193415638,7.605658436213991,0)" xlink:href="#I"/><use transform="matrix(0.04248971193415638,0,0,0.04248971193415638,16.103600823045266,0)" xlink:href="#N"/><use transform="matrix(0.04248971193415638,0,0,0.04248971193415638,27.108436213991762,0)" xlink:href="#O"/><use transform="matrix(0.04248971193415638,0,0,0.04248971193415638,31.357407407407408,0)" xlink:href="#P"/><use transform="matrix(0.04248971193415638,0,0,0.04248971193415638,39.85534979423868,0)" xlink:href="#P"/><use transform="matrix(0.04248971193415638,0,0,0.04248971193415638,48.35329218106995,0)" xlink:href="#Q"/></g><path fill="#a9afb8" d="M32 76v-337h29V76H32" id="R"/><use transform="matrix(0.04248971193415638,0,0,0.04248971193415638,0,0)" xlink:href="#R" id="g"/><path fill="#a9afb8" d="M185-189c-5-48-123-54-124 2 14 75 158 14 163 119 3 78-121 87-175 55-17-10-28-26-33-46l33-7c5 56 141 63 141-1 0-78-155-14-162-118-5-82 145-84 179-34 5 7 8 16 11 25" id="S"/><path fill="#a9afb8" d="M115-194c55 1 70 41 70 98S169 2 115 4C84 4 66-9 55-30l1 105H24l-1-265h31l2 30c10-21 28-34 59-34zm-8 174c40 0 45-34 45-75s-6-73-45-74c-42 0-51 32-51 76 0 43 10 73 51 73" id="T"/><path fill="#a9afb8" d="M59-47c-2 24 18 29 38 22v24C64 9 27 4 27-40v-127H5v-23h24l9-43h21v43h35v23H59v120" id="U"/><path fill="#a9afb8" d="M115-194c53 0 69 39 70 98 0 66-23 100-70 100C84 3 66-7 56-30L54 0H23l1-261h32v101c10-23 28-34 59-34zm-8 174c40 0 45-34 45-75 0-40-5-75-45-74-42 0-51 32-51 76 0 43 10 73 51 73" id="V"/><path fill="#a9afb8" d="M114-163C36-179 61-72 57 0H25l-1-190h30c1 12-1 29 2 39 6-27 23-49 58-41v29" id="W"/><g id="h"><use transform="matrix(0.04248971193415638,0,0,0.04248971193415638,0,0)" xlink:href="#S"/><use transform="matrix(0.04248971193415638,0,0,0.04248971193415638,10.19753086419753,0)" xlink:href="#P"/><use transform="matrix(0.04248971193415638,0,0,0.04248971193415638,18.695473251028805,0)" xlink:href="#T"/><use transform="matrix(0.04248971193415638,0,0,0.04248971193415638,27.193415637860078,0)" xlink:href="#U"/><use transform="matrix(0.04248971193415638,0,0,0.04248971193415638,31.442386831275712,0)" xlink:href="#P"/><use transform="matrix(0.04248971193415638,0,0,0.04248971193415638,39.94032921810699,0)" xlink:href="#J"/><use transform="matrix(0.04248971193415638,0,0,0.04248971193415638,52.64475308641975,0)" xlink:href="#V"/><use transform="matrix(0.04248971193415638,0,0,0.04248971193415638,61.142695473251024,0)" xlink:href="#P"/><use transform="matrix(0.04248971193415638,0,0,0.04248971193415638,69.6406378600823,0)" xlink:href="#W"/></g><path fill="#a9afb8" d="M101-251c82-7 93 87 43 132L82-64C71-53 59-42 53-27h129V0H18c2-99 128-94 128-182 0-28-16-43-45-43s-46 15-49 41l-32-3c6-41 34-60 81-64" id="X"/><path fill="#a9afb8" d="M134-131c28 9 52 24 51 62-1 50-34 73-85 73S17-19 16-69c0-36 21-54 49-61-75-25-45-126 34-121 46 3 78 18 79 63 0 33-17 51-44 57zm-34-11c31 1 46-15 46-44 0-28-17-43-47-42-29 0-46 13-45 42 1 28 16 44 46 44zm1 122c35 0 51-18 51-52 0-30-18-46-53-46-33 0-51 17-51 47 0 34 19 51 53 51" id="Y"/><path fill="#a9afb8" d="M68-38c1 34 0 65-14 84H32c9-13 17-26 17-46H33v-38h35" id="Z"/><g id="i"><use transform="matrix(0.04248971193415638,0,0,0.04248971193415638,0,0)" xlink:href="#X"/><use transform="matrix(0.04248971193415638,0,0,0.04248971193415638,8.497942386831275,0)" xlink:href="#Y"/><use transform="matrix(0.04248971193415638,0,0,0.04248971193415638,16.99588477366255,0)" xlink:href="#Z"/></g><path fill="#a9afb8" d="M101-251c68 0 85 55 85 127S166 4 100 4C33 4 14-52 14-124c0-73 17-127 87-127zm-1 229c47 0 54-49 54-102s-4-102-53-102c-51 0-55 48-55 102 0 53 5 102 54 102" id="aa"/><g id="j"><use transform="matrix(0.04248971193415638,0,0,0.04248971193415638,0,0)" xlink:href="#X"/><use transform="matrix(0.04248971193415638,0,0,0.04248971193415638,8.497942386831275,0)" xlink:href="#aa"/><use transform="matrix(0.04248971193415638,0,0,0.04248971193415638,16.99588477366255,0)" xlink:href="#X"/><use transform="matrix(0.04248971193415638,0,0,0.04248971193415638,25.493827160493822,0)" xlink:href="#aa"/></g><path fill="#0078d7" d="M240-174c0 40-23 61-54 70L253 0h-59l-57-94H76V0H24v-248c93 4 217-23 216 74zM76-134c48-2 112 12 112-38 0-48-66-32-112-35v73" id="ab"/><path fill="#0078d7" d="M185-48c-13 30-37 53-82 52C43 2 14-33 14-96s30-98 90-98c62 0 83 45 84 108H66c0 31 8 55 39 56 18 0 30-7 34-22zm-45-69c5-46-57-63-70-21-2 6-4 13-4 21h74" id="ac"/><path fill="#0078d7" d="M84 4C32 4 15-41 15-95c0-55 18-99 73-99 29 0 47 12 58 34l2-30h48l-1 265h-49V-32C136-9 114 4 84 4zm21-34c32 0 41-29 41-66 0-36-9-64-40-64-33 0-39 30-40 65 0 43 13 65 39 65" id="ad"/><path fill="#0078d7" d="M85 4C-2 5 27-109 22-190h50c7 57-23 150 33 157 60-5 35-97 40-157h50l1 190h-47c-2-12 1-28-3-38-12 25-28 42-61 42" id="ae"/><path fill="#0078d7" d="M137-138c1-29-70-34-71-4 15 46 118 7 119 86 1 83-164 76-172 9l43-7c4 19 20 25 44 25 33 8 57-30 24-41C81-84 22-81 20-136c-2-80 154-74 161-7" id="af"/><path fill="#0078d7" d="M115-3C79 11 28 4 28-45v-112H4v-33h27l15-45h31v45h36v33H77v99c-1 23 16 31 38 25v30" id="ag"/><g id="k"><use transform="matrix(0.06234567901234567,0,0,0.06234567901234567,0,0)" xlink:href="#ab"/><use transform="matrix(0.06234567901234567,0,0,0.06234567901234567,16.147530864197527,0)" xlink:href="#ac"/><use transform="matrix(0.06234567901234567,0,0,0.06234567901234567,28.61666666666666,0)" xlink:href="#ad"/><use transform="matrix(0.06234567901234567,0,0,0.06234567901234567,42.27037037037036,0)" xlink:href="#ae"/><use transform="matrix(0.06234567901234567,0,0,0.06234567901234567,55.924074074074056,0)" xlink:href="#ac"/><use transform="matrix(0.06234567901234567,0,0,0.06234567901234567,68.39320987654318,0)" xlink:href="#af"/><use transform="matrix(0.06234567901234567,0,0,0.06234567901234567,80.86234567901232,0)" xlink:href="#ag"/></g><path fill="#19967d" d="M240-174c0 40-23 61-54 70L253 0h-59l-57-94H76V0H24v-248c93 4 217-23 216 74zM76-134c48-2 112 12 112-38 0-48-66-32-112-35v73" id="ah"/><path fill="#19967d" d="M185-48c-13 30-37 53-82 52C43 2 14-33 14-96s30-98 90-98c62 0 83 45 84 108H66c0 31 8 55 39 56 18 0 30-7 34-22zm-45-69c5-46-57-63-70-21-2 6-4 13-4 21h74" id="ai"/><path fill="#19967d" d="M137-138c1-29-70-34-71-4 15 46 118 7 119 86 1 83-164 76-172 9l43-7c4 19 20 25 44 25 33 8 57-30 24-41C81-84 22-81 20-136c-2-80 154-74 161-7" id="aj"/><path fill="#19967d" d="M135-194c53 0 70 44 70 98 0 56-19 98-73 100-31 1-45-17-59-34 3 33 2 69 2 105H25l-1-265h48c2 10 0 23 3 31 11-24 29-35 60-35zM114-30c33 0 39-31 40-66 0-38-9-64-40-64-56 0-55 130 0 130" id="ak"/><path fill="#19967d" d="M110-194c64 0 96 36 96 99 0 64-35 99-97 99-61 0-95-36-95-99 0-62 34-99 96-99zm-1 164c35 0 45-28 45-65 0-40-10-65-43-65-34 0-45 26-45 65 0 36 10 65 43 65" id="al"/><path fill="#19967d" d="M135-194c87-1 58 113 63 194h-50c-7-57 23-157-34-157-59 0-34 97-39 157H25l-1-190h47c2 12-1 28 3 38 12-26 28-41 61-42" id="am"/><g id="l"><use transform="matrix(0.06234567901234567,0,0,0.06234567901234567,0,0)" xlink:href="#ah"/><use transform="matrix(0.06234567901234567,0,0,0.06234567901234567,16.147530864197527,0)" xlink:href="#ai"/><use transform="matrix(0.06234567901234567,0,0,0.06234567901234567,28.61666666666666,0)" xlink:href="#aj"/><use transform="matrix(0.06234567901234567,0,0,0.06234567901234567,41.08580246913579,0)" xlink:href="#ak"/><use transform="matrix(0.06234567901234567,0,0,0.06234567901234567,54.7395061728395,0)" xlink:href="#al"/><use transform="matrix(0.06234567901234567,0,0,0.06234567901234567,68.3932098765432,0)" xlink:href="#am"/><use transform="matrix(0.06234567901234567,0,0,0.06234567901234567,82.0469135802469,0)" xlink:href="#aj"/><use transform="matrix(0.06234567901234567,0,0,0.06234567901234567,94.51604938271603,0)" xlink:href="#ai"/></g><path fill="#de5f85" d="M182-130c37 4 62 22 62 59C244 23 116-4 24 0v-248c84 5 203-23 205 63 0 31-19 50-47 55zM76-148c40-3 101 13 101-30 0-44-60-28-101-31v61zm0 110c48-3 116 14 116-37 0-48-69-32-116-35v72" id="an"/><path fill="#de5f85" d="M133-34C117-15 103 5 69 4 32 3 11-16 11-54c-1-60 55-63 116-61 1-26-3-47-28-47-18 1-26 9-28 27l-52-2c7-38 36-58 82-57s74 22 75 68l1 82c-1 14 12 18 25 15v27c-30 8-71 5-69-32zm-48 3c29 0 43-24 42-57-32 0-66-3-65 30 0 17 8 27 23 27" id="ao"/><path fill="#de5f85" d="M135-194c87-1 58 113 63 194h-50c-7-57 23-157-34-157-59 0-34 97-39 157H25l-1-190h47c2 12-1 28 3 38 12-26 28-41 61-42" id="ap"/><path fill="#de5f85" d="M147 0L96-86 75-71V0H25v-261h50v150l67-79h53l-66 74L201 0h-54" id="aq"/><path fill="#de5f85" d="M220-157c-53 9-28 100-34 157h-49v-107c1-27-5-49-29-50C55-147 81-57 75 0H25l-1-190h47c2 12-1 28 3 38 10-53 101-56 108 0 13-22 24-43 59-42 82 1 51 116 57 194h-49v-107c-1-25-5-48-29-50" id="ar"/><path fill="#de5f85" d="M135-150c-39-12-60 13-60 57V0H25l-1-190h47c2 13-1 29 3 40 6-28 27-53 61-41v41" id="as"/><path fill="#de5f85" d="M185-48c-13 30-37 53-82 52C43 2 14-33 14-96s30-98 90-98c62 0 83 45 84 108H66c0 31 8 55 39 56 18 0 30-7 34-22zm-45-69c5-46-57-63-70-21-2 6-4 13-4 21h74" id="at"/><path fill="#de5f85" d="M115-3C79 11 28 4 28-45v-112H4v-33h27l15-45h31v45h36v33H77v99c-1 23 16 31 38 25v30" id="au"/><path fill="#de5f85" d="M25-224v-37h50v37H25zM25 0v-190h50V0H25" id="av"/><path fill="#de5f85" d="M195-6C206 82 75 100 31 46c-4-6-6-13-8-21l49-6c3 16 16 24 34 25 40 0 42-37 40-79-11 22-30 35-61 35-53 0-70-43-70-97 0-56 18-96 73-97 30 0 46 14 59 34l2-30h47zm-90-29c32 0 41-27 41-63 0-35-9-62-40-62-32 0-39 29-40 63 0 36 9 62 39 62" id="aw"/><g id="m"><use transform="matrix(0.07469135802469135,0,0,0.07469135802469135,0,0)" xlink:href="#an"/><use transform="matrix(0.07469135802469135,0,0,0.07469135802469135,19.34506172839506,0)" xlink:href="#ao"/><use transform="matrix(0.07469135802469135,0,0,0.07469135802469135,34.28333333333333,0)" xlink:href="#ap"/><use transform="matrix(0.07469135802469135,0,0,0.07469135802469135,50.64074074074074,0)" xlink:href="#aq"/><use transform="matrix(0.07469135802469135,0,0,0.07469135802469135,65.579012345679,0)" xlink:href="#ar"/><use transform="matrix(0.07469135802469135,0,0,0.07469135802469135,89.48024691358023,0)" xlink:href="#ao"/><use transform="matrix(0.07469135802469135,0,0,0.07469135802469135,104.4185185185185,0)" xlink:href="#as"/><use transform="matrix(0.07469135802469135,0,0,0.07469135802469135,114.87530864197527,0)" xlink:href="#aq"/><use transform="matrix(0.07469135802469135,0,0,0.07469135802469135,129.81358024691355,0)" xlink:href="#at"/><use transform="matrix(0.07469135802469135,0,0,0.07469135802469135,144.75185185185182,0)" xlink:href="#au"/><use transform="matrix(0.07469135802469135,0,0,0.07469135802469135,153.6401234567901,0)" xlink:href="#av"/><use transform="matrix(0.07469135802469135,0,0,0.07469135802469135,161.10925925925923,0)" xlink:href="#ap"/><use transform="matrix(0.07469135802469135,0,0,0.07469135802469135,177.46666666666664,0)" xlink:href="#aw"/></g><path fill="#de5f85" d="M199 0l-22-63H83L61 0H9l90-248h61L250 0h-51zm-33-102l-36-108c-10 38-24 72-36 108h72" id="ax"/><path fill="#de5f85" d="M85 4C-2 5 27-109 22-190h50c7 57-23 150 33 157 60-5 35-97 40-157h50l1 190h-47c-2-12 1-28-3-38-12 25-28 42-61 42" id="ay"/><path fill="#de5f85" d="M110-194c64 0 96 36 96 99 0 64-35 99-97 99-61 0-95-36-95-99 0-62 34-99 96-99zm-1 164c35 0 45-28 45-65 0-40-10-65-43-65-34 0-45 26-45 65 0 36 10 65 43 65" id="az"/><path fill="#de5f85" d="M230 0l2-204L168 0h-37L68-204 70 0H24v-248h70l56 185 57-185h69V0h-46" id="aA"/><path fill="#de5f85" d="M24 0v-248h52v208h133V0H24" id="aB"/><g id="n"><use transform="matrix(0.07469135802469135,0,0,0.07469135802469135,0,0)" xlink:href="#ax"/><use transform="matrix(0.07469135802469135,0,0,0.07469135802469135,19.34506172839506,0)" xlink:href="#ay"/><use transform="matrix(0.07469135802469135,0,0,0.07469135802469135,35.70246913580246,0)" xlink:href="#au"/><use transform="matrix(0.07469135802469135,0,0,0.07469135802469135,44.59074074074073,0)" xlink:href="#az"/><use transform="matrix(0.07469135802469135,0,0,0.07469135802469135,60.948148148148135,0)" xlink:href="#aA"/><use transform="matrix(0.07469135802469135,0,0,0.07469135802469135,83.28086419753085,0)" xlink:href="#aB"/></g><path fill="#de5f85" d="M136-208V0H84v-208H4v-40h212v40h-80" id="aC"/><g id="o"><use transform="matrix(0.07469135802469135,0,0,0.07469135802469135,0,0)" xlink:href="#aC"/><use transform="matrix(0.07469135802469135,0,0,0.07469135802469135,14.863580246913576,0)" xlink:href="#as"/><use transform="matrix(0.07469135802469135,0,0,0.07469135802469135,25.320370370370362,0)" xlink:href="#ao"/><use transform="matrix(0.07469135802469135,0,0,0.07469135802469135,40.258641975308635,0)" xlink:href="#av"/><use transform="matrix(0.07469135802469135,0,0,0.07469135802469135,47.72777777777777,0)" xlink:href="#ap"/><use transform="matrix(0.07469135802469135,0,0,0.07469135802469135,64.08518518518517,0)" xlink:href="#av"/><use transform="matrix(0.07469135802469135,0,0,0.07469135802469135,71.55432098765431,0)" xlink:href="#ap"/><use transform="matrix(0.07469135802469135,0,0,0.07469135802469135,87.91172839506171,0)" xlink:href="#aw"/></g><path fill="#de5f85" d="M24-248c120-7 223 5 221 122C244-46 201 0 124 0H24v-248zM76-40c74 7 117-18 117-86 0-67-45-88-117-82v168" id="aD"/><path fill="#de5f85" d="M135-194c53 0 70 44 70 98 0 56-19 98-73 100-31 1-45-17-59-34 3 33 2 69 2 105H25l-1-265h48c2 10 0 23 3 31 11-24 29-35 60-35zM114-30c33 0 39-31 40-66 0-38-9-64-40-64-56 0-55 130 0 130" id="aE"/><path fill="#de5f85" d="M25 0v-261h50V0H25" id="aF"/><path fill="#de5f85" d="M123 10C108 53 80 86 19 72V37c35 8 53-11 59-39L3-190h52l48 148c12-52 28-100 44-148h51" id="aG"/><path fill="#de5f85" d="M88-194c31-1 46 15 58 34l-1-101h50l1 261h-48c-2-10 0-23-3-31C134-8 116 4 84 4 32 4 16-41 15-95c0-56 19-97 73-99zm17 164c33 0 40-30 41-66 1-37-9-64-41-64s-38 30-39 65c0 43 13 65 39 65" id="aH"/><g id="p"><use transform="matrix(0.07469135802469135,0,0,0.07469135802469135,0,0)" xlink:href="#aD"/><use transform="matrix(0.07469135802469135,0,0,0.07469135802469135,19.34506172839506,0)" xlink:href="#at"/><use transform="matrix(0.07469135802469135,0,0,0.07469135802469135,34.28333333333333,0)" xlink:href="#aE"/><use transform="matrix(0.07469135802469135,0,0,0.07469135802469135,50.64074074074074,0)" xlink:href="#aF"/><use transform="matrix(0.07469135802469135,0,0,0.07469135802469135,58.10987654320988,0)" xlink:href="#az"/><use transform="matrix(0.07469135802469135,0,0,0.07469135802469135,74.46728395061727,0)" xlink:href="#aG"/><use transform="matrix(0.07469135802469135,0,0,0.07469135802469135,89.40555555555554,0)" xlink:href="#at"/><use transform="matrix(0.07469135802469135,0,0,0.07469135802469135,104.34382716049382,0)" xlink:href="#aH"/></g><g id="q"><use transform="matrix(0.07469135802469135,0,0,0.07469135802469135,0,0)" xlink:href="#aA"/><use transform="matrix(0.07469135802469135,0,0,0.07469135802469135,22.33271604938271,0)" xlink:href="#az"/><use transform="matrix(0.07469135802469135,0,0,0.07469135802469135,38.69012345679012,0)" xlink:href="#aH"/><use transform="matrix(0.07469135802469135,0,0,0.07469135802469135,55.04753086419753,0)" xlink:href="#at"/><use transform="matrix(0.07469135802469135,0,0,0.07469135802469135,69.98580246913579,0)" xlink:href="#aF"/></g></defs></g></svg>